<?xml version="1.0" encoding="utf-8"?>
<!-- Generator: Adobe Illustrator 26.2.1, SVG Export Plug-In . SVG Version: 6.00 Build 0)  -->
<svg version="1.1" id="Layer_2" xmlns="http://www.w3.org/2000/svg" xmlns:xlink="http://www.w3.org/1999/xlink" x="0px" y="0px"
	 viewBox="0 0 256 256" style="enable-background:new 0 0 256 256;" xml:space="preserve">
<style type="text/css">
	.st0{fill:#FFFFFF;}
</style>
<g>
	<path class="st0" d="M6.7,5.9v244.3h17.6v5.9H0V0h24.3v5.9H6.7z M249.3,250.1V5.9h-17.6V0H256v256h-24.3v-5.9H249.3z"/>
	<path class="st0" d="M82,83.3v12.4h0.4c3.1-4.5,7.1-8.3,11.9-11c4.6-2.6,10-3.9,16-3.9c5.8,0,11,1.1,15.8,3.4
		c4.8,2.2,8.4,6.2,10.8,11.8c2.7-4,6.4-7.5,11-10.6c4.6-3.1,10.1-4.6,16.5-4.6c4.8,0,9.3,0.6,13.4,1.8c4.1,1.2,7.6,3.1,10.6,5.7
		c2.9,2.6,5.2,6,6.9,10.1c1.6,4.2,2.5,9.2,2.5,15.1v61.1h-25v-51.7c0-3.1-0.1-5.9-0.4-8.7c-0.2-2.5-0.8-4.9-1.9-7.1
		c-1.1-2-2.7-3.7-4.7-4.8c-2.1-1.2-4.9-1.8-8.4-1.8c-3.5,0-6.4,0.7-8.5,2c-2.2,1.4-3.9,3.1-5.1,5.3c-1.3,2.3-2.1,4.8-2.5,7.4
		c-0.4,2.8-0.6,5.6-0.6,8.4v50.9h-25v-51.2c0-2.7-0.1-5.4-0.2-8c-0.1-2.5-0.6-5-1.5-7.3c-0.9-2.2-2.4-4.1-4.4-5.4
		c-2.1-1.3-5.1-2-9.1-2c-1.6,0.1-3.2,0.3-4.7,0.8c-2.1,0.6-4,1.6-5.6,3c-1.8,1.5-3.4,3.6-4.7,6.4c-1.3,2.8-1.9,6.4-1.9,10.9v53h-25
		V83.3H82z"/>
</g>
</svg>
