<?xml version="1.0" encoding="UTF-8"?>
<svg id="Layer_2" data-name="Layer 2" xmlns="http://www.w3.org/2000/svg" viewBox="0 0 256 226">
  <defs>
    <style>
      .cls-1 {
        fill: #ffffff;
        stroke-width: 0px;
      }
    </style>
  </defs>
  <g id="Layer_1-2" data-name="Layer 1">
    <g id="layer1">
      <path id="path5" class="cls-1" d="m255.9,24.7c-9.4,4.2-19.5,7-30.2,8.3,10.8-6.5,19.2-16.8,23.1-29.1-10.1,6-21.4,10.4-33.4,12.7C205.8,6.4,192.2,0,177.1,0c-29,0-52.5,23.5-52.5,52.5,0,4.1.5,8.1,1.4,12-43.7-2.2-82.4-23.1-108.3-54.9-4.5,7.8-7.1,16.8-7.1,26.4,0,18.2,9.3,34.3,23.4,43.7-8.6-.3-16.7-2.6-23.8-6.6v.7c0,25.4,18.1,46.7,42.1,51.5-4.4,1.2-9,1.8-13.8,1.8-3.4,0-6.7-.3-9.9-.9,6.7,20.9,26.1,36,49.1,36.5-18,14.1-40.6,22.5-65.2,22.5-4.2,0-8.4-.2-12.5-.7,23.2,14.9,50.9,23.6,80.5,23.6,96.6,0,149.4-80,149.4-149.4,0-2.3-.1-4.5-.2-6.8,10.3-7.4,19.2-16.7,26.2-27.2h0Z"/>
    </g>
  </g>
</svg>