<svg xmlns="http://www.w3.org/2000/svg" viewBox="0 0 64 64" fill="none" role="img" aria-label="ANT POOL">
  <defs>
    <linearGradient id="g" x1="12" y1="8" x2="52" y2="56" gradientUnits="userSpaceOnUse">
      <stop stop-color="#3b82f6"/>
      <stop offset="1" stop-color="#1d4ed8"/>
    </linearGradient>
  </defs>
  <rect width="64" height="64" rx="16" fill="#eff6ff"/>
  <path d="M32 8l14 8v16c0 10.5-6.2 18.2-14 22-7.8-3.8-14-11.5-14-22V16L32 8z" fill="url(#g)"/>
  <path d="M32 14l9 5.2v11.8c0 6.8-4 11.8-9 14.4-5-2.6-9-7.6-9-14.4V19.2L32 14z" fill="#fff" fill-opacity=".18"/>
  <circle cx="26" cy="28" r="2.2" fill="#fff"/>
  <circle cx="38" cy="28" r="2.2" fill="#fff"/>
  <path d="M32 33c-2.2 0-4 1.1-4 2.5s1.8 2.5 4 2.5 4-1.1 4-2.5S34.2 33 32 33z" fill="#fff" fill-opacity=".85"/>
  <path d="M32 10l-3 5.5M32 10l3 5.5" stroke="#fff" stroke-width="2" stroke-linecap="round"/>
  <path d="M18 22l-5-2M46 22l5-2" stroke="#93c5fd" stroke-width="2" stroke-linecap="round"/>
  <path d="M20 38h-6M44 38h6" stroke="#93c5fd" stroke-width="2" stroke-linecap="round"/>
  <circle cx="12" cy="36" r="2" fill="#2563eb" fill-opacity=".35"/>
  <circle cx="52" cy="36" r="2" fill="#2563eb" fill-opacity=".35"/>
  <circle cx="32" cy="52" r="2" fill="#2563eb" fill-opacity=".35"/>
</svg>
