<?xml version="1.0" encoding="UTF-8"?>
<svg id="Layer_1" data-name="Layer 1" xmlns="http://www.w3.org/2000/svg" viewBox="0 0 512 256">
  <defs>
    <style>
      .cls-1 {
        fill: #fff;
      }

      .cls-1, .cls-2 {
        stroke-width: 0px;
      }

      .cls-2 {
        fill: #d82652;
      }
    </style>
  </defs>
  <g>
    <path class="cls-2" d="m490.48,220.28s-9.07-35.61-27-49.65c-12.3-11.58-22.54-23.77-30.64-34.84-8.1,11.07-18.34,23.31-30.64,34.84-17.88,14.04-27,49.65-27,49.65-3.43-35.1,11.32-51.65,18.55-59.54,11.27-12.25,22.08-23.88,31.36-36.07-11.02-16.5-16.45-28.44-16.45-28.44-1.28-4.71-5.53-9.58-5.53-9.58,8.76-11.68-2.31-24.49-2.31-24.49,8.35-8.1,9.68-14.45,11.99-26.44-2.82,32.23,5.79,56.36,20.09,78.03,14.19-21.67,22.8-45.81,19.98-78.03,2.31,12.04,3.64,18.34,11.99,26.44,0,0-11.07,12.81-2.31,24.49,0,0-4.25,4.87-5.53,9.58,0,0-5.43,11.94-16.4,28.44,9.27,12.19,20.14,23.88,31.36,36.07,7.17,7.89,21.93,24.44,18.5,59.54Z"/>
    <g>
      <path class="cls-1" d="m420.34,124.57c-5.12,6.56-10.66,12.96-16.5,19.42-7.63-6.46-16.19-7.69-16.19-7.69,33.05-11.27,4.05-21.88.41-23.52-34.12-15.37-34.38-55.75-34.38-55.75,16.6,49.24,52.52,46.57,52.52,46.57.51-.31.97-.67,1.33-1.02,2.36,4.71,6.61,12.5,12.81,21.98Z"/>
      <g>
        <path class="cls-1" d="m439.5,93.98c-1.95,4.3-4.2,8.4-6.66,12.45-2.46-4.05-4.66-8.2-6.66-12.45,2.51-4.97,6.66-29.67,6.66-29.67,0,0,4.15,24.7,6.66,29.67Z"/>
        <path class="cls-1" d="m450.16,176.93l-5.02,3.38s-.15-6.4-5.07-2.66c-.61.46-3.43,3.18-.05,6.15,0,0-5.84,5.89-7.17,11.84-1.33-5.94-7.17-11.84-7.17-11.84,3.38-2.97.56-5.69-.05-6.15-4.92-3.74-5.07,2.66-5.07,2.66l-5.02-3.38c.41-5.12.15-9.63-.67-13.58,6.76-7.12,12.76-14.24,17.98-21.06,5.28,6.81,11.22,13.94,17.98,21.06-.82,3.95-1.08,8.45-.67,13.58Z"/>
        <path class="cls-1" d="m478.03,136.3s-8.56,1.23-16.19,7.69c-5.79-6.46-11.37-12.86-16.5-19.42,6.2-9.48,10.45-17.27,12.81-21.98.36.36.82.72,1.33,1.02,0,0,35.92,2.66,52.52-46.57,0,0-.26,40.37-34.38,55.75-3.64,1.64-32.64,12.25.41,23.52Z"/>
      </g>
    </g>
  </g>
  <g>
    <path class="cls-1" d="m0,162.38v-72.69h25.46c21.48,0,36.3,14.82,36.3,36.5s-14.52,36.2-35.6,36.2H0Zm12.73-60.96v49.23h12.23c14.52,0,23.37-9.35,23.37-24.46s-9.05-24.76-24.07-24.76h-11.54Z"/>
    <path class="cls-1" d="m102.62,124.3h-4.48c-8.75,0-14.22,4.67-14.22,14.22v23.87h-12.13v-49.03h11.44l.7,7.16c2.09-4.87,6.76-8.15,13.33-8.15,1.69,0,3.38.2,5.37.7v11.24Z"/>
    <path class="cls-1" d="m106.7,148.36c0-9.05,6.56-14.72,18.2-15.61l14.72-1.09v-1.09c0-6.66-3.98-9.35-10.14-9.35-7.16,0-11.14,2.98-11.14,8.15h-10.34c0-10.64,8.75-17.6,22.08-17.6s21.38,7.16,21.38,20.78v29.83h-10.64l-.89-7.26c-2.09,5.07-8.75,8.55-16.41,8.55-10.44,0-16.81-6.07-16.81-15.31Zm33.02-5.87v-2.59l-10.24.8c-7.56.7-10.44,3.18-10.44,7.16,0,4.47,2.98,6.66,8.45,6.66,7.46,0,12.23-4.47,12.23-12.03Z"/>
    <path class="cls-1" d="m183.96,111.67c7.36,0,13.13,3.08,16.01,8.35l.7-6.76h11.24v46.64c0,16.41-9.84,26.65-25.76,26.65-14.12,0-23.77-8.06-25.26-21.18h12.13c.8,6.36,5.67,10.14,13.13,10.14,8.35,0,13.72-5.27,13.72-13.43v-8.15c-3.08,4.57-9.15,7.46-16.21,7.46-13.92,0-23.07-10.44-23.07-24.66s9.35-25.06,23.37-25.06Zm2.09,39.18c8.35,0,13.52-5.87,13.52-14.42s-5.07-14.12-13.52-14.12-13.23,6.07-13.23,14.12,5.27,14.42,13.23,14.42Z"/>
    <path class="cls-1" d="m247.8,111.87c15.21,0,26.25,10.54,26.25,25.86s-11.04,25.86-26.25,25.86-26.25-10.54-26.25-25.86,11.04-25.86,26.25-25.86Zm0,40.87c8.35,0,14.12-6.07,14.12-15.02s-5.77-15.02-14.12-15.02-14.12,6.07-14.12,15.02,5.77,15.02,14.12,15.02Z"/>
    <path class="cls-1" d="m283.7,162.38v-49.13h11.24l.99,6.36c3.08-4.97,9.05-7.86,15.71-7.86,12.33,0,18.7,7.66,18.7,20.39v30.23h-12.13v-27.35c0-8.25-4.08-12.23-10.34-12.23-7.46,0-12.03,5.17-12.03,13.13v26.45h-12.13Z"/>
    <path class="cls-1" d="m342.17,130.46h32.02v10.74h-32.02v-10.74Z"/>
  </g>
</svg>