<?xml version="1.0" encoding="UTF-8"?>
<svg id="Layer_2" data-name="Layer 2" xmlns="http://www.w3.org/2000/svg" viewBox="0 0 81.5 100.1">
  <defs>
    <style>
      .cls-1 {
        fill: #f8ffff;
      }
    </style>
  </defs>
  <g id="Layer_1-2" data-name="Layer 1">
    <path class="cls-1" d="m78.89,34.13c-.58.45-10.83,6.23-10.83,19.07,0,14.86,13.04,20.11,13.43,20.24-.06.32-2.07,7.2-6.88,14.21-4.28,6.17-8.76,12.32-15.57,12.32s-8.56-3.95-16.42-3.95-10.38,4.08-16.61,4.08-10.57-5.71-15.57-12.71C4.67,79.15,0,66.37,0,54.24c0-19.46,12.65-29.78,25.11-29.78,6.62,0,12.13,4.34,16.29,4.34s10.12-4.6,17.65-4.6c2.85,0,13.1.26,19.85,9.93h0Zm-23.43-18.17c3.11-3.69,5.32-8.82,5.32-13.94,0-.71-.06-1.43-.19-2.01-5.07.19-11.09,3.37-14.73,7.59-2.85,3.24-5.52,8.37-5.52,13.56,0,.78.13,1.56.19,1.81.32.06.84.13,1.36.13,4.54,0,10.26-3.04,13.56-7.14h0Z"/>
  </g>
</svg>