<svg xmlns="http://www.w3.org/2000/svg" viewBox="0 0 276 276" width="276" height="276">
  <circle cx="138" cy="138" r="138" fill="#8DC63F"/>
  <path d="M138 40c-54.1 0-98 43.9-98 98s43.9 98 98 98 98-43.9 98-98-43.9-98-98-98zm0 178c-44.2 0-80-35.8-80-80s35.8-80 80-80c17.5 0 33.7 5.6 46.9 15.2-5.3 2.9-8.9 8.5-8.9 14.8 0 9.4 7.6 17 17 17s17-7.6 17-17c0-2.8-.7-5.5-1.9-7.8C215.5 99.7 218 118.3 218 138c0 44.2-35.8 80-80 80z" fill="#fff"/>
  <circle cx="120" cy="120" r="14" fill="#fff"/>
  <circle cx="120" cy="120" r="8" fill="#333"/>
  <path d="M138 168c-22 0-40-14-44-34h88c-4 20-22 34-44 34z" fill="#fff"/>
</svg>
