<?xml version="1.0" encoding="utf-8"?>
<!-- Generator: Adobe Illustrator 26.2.1, SVG Export Plug-In . SVG Version: 6.00 Build 0)  -->
<svg version="1.1" id="Layer_1" xmlns="http://www.w3.org/2000/svg" xmlns:xlink="http://www.w3.org/1999/xlink" x="0px" y="0px"
	 viewBox="0 0 256 256" style="enable-background:new 0 0 256 256;" xml:space="preserve">
<style type="text/css">
	.st0{fill:#FFFFFF;}
</style>
<g transform="scale(3.4682)">
	<path class="st0" d="M36.9,0.2C16.6,0.2,0.2,16.6,0.2,36.9s16.4,36.7,36.7,36.7s36.7-16.4,36.7-36.7S57.2,0.2,36.9,0.2z M54.4,24.1
		c-0.1,1.5-1,6.7-1.8,12.3L50,53c0,0-0.2,2.4-2,2.9c-1.8,0.4-4.8-1.5-5.3-1.9c-0.4-0.3-8-5.1-10.7-7.4c-0.7-0.6-1.6-1.9,0.1-3.4
		c3.8-3.5,8.4-7.9,11.1-10.6c1.3-1.3,2.5-4.2-2.8-0.6L25.4,42c0,0-1.7,1.1-4.9,0.1c-3.2-1-6.9-2.2-6.9-2.2s-2.5-1.6,1.8-3.3
		l24.7-10.2c2.4-1.1,10.7-4.5,10.7-4.5S54.7,20.5,54.4,24.1z"/>
	<path d="M54.4,24.1c-0.1,1.5-1,6.7-1.8,12.3L50,53c0,0-0.2,2.4-2,2.9c-1.8,0.4-4.8-1.5-5.3-1.9c-0.4-0.3-8-5.1-10.7-7.4
		c-0.7-0.6-1.6-1.9,0.1-3.4c3.8-3.5,8.4-7.9,11.1-10.6c1.3-1.3,2.5-4.2-2.8-0.6L25.4,42c0,0-1.7,1.1-4.9,0.1c-3.2-1-6.9-2.2-6.9-2.2
		s-2.5-1.6,1.8-3.3l24.7-10.2c2.4-1.1,10.7-4.5,10.7-4.5S54.7,20.5,54.4,24.1z"/>
</g>
</svg>
