<?xml version="1.0" encoding="UTF-8"?>
<svg id="Layer_2" data-name="Layer 2" xmlns="http://www.w3.org/2000/svg" viewBox="0 0 74.03 87.6">
  <defs>
    <style>
      .cls-1 {
        fill: #f8ffff;
      }
    </style>
  </defs>
  <g id="Layer_1-2" data-name="Layer 1">
    <g>
      <path class="cls-1" d="m74.03,33.85v22.57c0,2.99-2.43,5.42-5.42,5.42s-5.42-2.43-5.42-5.42v-22.57c0-2.99,2.43-5.42,5.42-5.42s5.42,2.43,5.42,5.42Z"/>
      <path class="cls-1" d="m10.83,33.85v22.57c0,2.99-2.43,5.42-5.42,5.42s-5.42-2.43-5.42-5.42v-22.57c0-2.99,2.43-5.42,5.42-5.42s5.42,2.43,5.42,5.42Z"/>
      <path class="cls-1" d="m61.18,29.36v35.02c0,3.23-2.62,5.84-5.84,5.84h-3.88v11.95c0,2.99-2.43,5.42-5.42,5.42s-5.42-2.43-5.42-5.42v-11.95h-7.22v11.95c0,2.99-2.43,5.42-5.42,5.42s-5.42-2.43-5.42-5.42v-11.95h-3.88c-3.23,0-5.84-2.62-5.84-5.84V29.36h48.33Z"/>
      <path class="cls-1" d="m60.41,21.89c-1.49-5.34-5.07-9.9-9.89-12.91-.27-.17-.54-.33-.82-.49-.28-.16-.55-.31-.84-.46l.92-1.66,2.9-5.23c.1-.18.12-.39.07-.58-.06-.2-.19-.36-.37-.46-.12-.06-.24-.1-.37-.1-.07,0-.14,0-.22.03-.2.06-.36.19-.46.37l-2.94,5.3h0l-.92,1.67c-.29-.13-.59-.25-.89-.37-.3-.12-.6-.23-.91-.34-2.69-.96-5.61-1.48-8.67-1.48s-5.98.52-8.67,1.48c-.31.11-.61.22-.9.34-.3.12-.59.24-.89.37l-.93-1.67L22.69.4c-.1-.18-.27-.31-.46-.37-.07-.02-.14-.03-.22-.03-.13,0-.25.03-.37.1-.18.1-.31.26-.37.46-.06.2-.03.41.07.58l2.9,5.23.92,1.66c-.28.15-.56.3-.84.46-.28.16-.55.32-.82.49-4.82,3.01-8.4,7.57-9.89,12.91-.5,1.78-.76,3.64-.77,5.56h48.33c0-1.92-.27-3.78-.77-5.56Zm-34.55-7.32c.31,0,.59.07.85.19.69.32,1.17,1.02,1.17,1.83,0,.08,0,.17-.02.25-.12,1-.97,1.77-2,1.77-1.11,0-2.02-.91-2.02-2.02s.91-2.02,2.02-2.02Zm22.3,0c1.11,0,2.02.91,2.02,2.02s-.91,2.02-2.02,2.02c-1.03,0-1.88-.77-2-1.77-.01-.08-.02-.17-.02-.25,0-.81.48-1.51,1.17-1.83.26-.12.54-.19.85-.19Z"/>
    </g>
  </g>
</svg>